<?xml version="1.0" encoding="utf-8"?>
<!-- Generator: Adobe Illustrator 23.1.0, SVG Export Plug-In . SVG Version: 6.00 Build 0)  -->
<svg version="1.1" id="Capa_1" xmlns="http://www.w3.org/2000/svg" xmlns:xlink="http://www.w3.org/1999/xlink" x="0px" y="0px"
	 viewBox="0 0 1200 1200" enable-background="new 0 0 1200 1200" xml:space="preserve">
<path d="M367.388,75.927h238.035v186.629c5.379,13.239,21.553,21.831,35.832,21.25c7.8-0.317,15.728-3.22,23.233-1.071
	c6.141,1.758,10.818,6.583,15.986,10.339c21.513,15.635,50.884,12.492,77.201,8.656c-6.084,10.05,9.3,20.345,20.949,18.822
	c11.649-1.523,24.004-7.658,34.435-2.255c4.329,2.243,7.551,6.217,11.828,8.558c18.18,9.954,38.878-14.138,59.33-10.77
	c7.571,1.247,13.991,6.165,21.234,8.7c28.008,9.801,57.272-17.649,86.564-12.906c28.344,4.59,48.426,38.08,76.964,34.917
	c3.827-0.424,7.689-1.532,11.466-0.783c13.612,2.701,12.026,22.266,9.906,35.98c-5.413,35.006,8.995,69.705,23.09,102.202
	c7.469,17.219,14.937,34.439,22.406,51.658c5.559,12.816,11.172,25.818,13.205,39.639c2.003,13.613,0.453,27.47-1.1,41.142
	c-2.919,25.711-5.839,51.422-8.758,77.133c-1.109,9.769-2.583,20.329-9.516,27.301c-5.153,5.182-12.467,7.456-19.469,9.549
	c-17.15,5.126-34.299,10.252-51.449,15.378c3.389-11.337-7.099-24.426-18.902-23.591c-11.803,0.835-20.343,15.27-15.392,26.017
	c1.648,3.577,4.439,6.618,5.549,10.397c2.73,9.293-5.406,17.934-12.771,24.224c-27.021,23.076-55.073,46.733-89.041,57.162
	c-15.553,4.775-34.463,8.595-40.677,23.631c-1.767,4.276-2.198,8.983-3.635,13.381c-6.792,20.799-31.926,27.752-49.906,40.221
	c-3.825,2.653-7.59,5.916-8.958,10.365c-1.305,4.245-0.208,8.8,0.605,13.166c4.405,23.656-0.083,48.86-12.382,69.541
	c3.411,25.129,11.926,49.554,24.875,71.359c7.504,12.635,15.983,30.292,5.037,40.098c-47.634,7.531-107.086-5.75-148.902-29.773
	c-5.976-3.433-12.133-7.558-14.723-13.945c-2.829-6.975-0.723-14.875-1.192-22.387c-1.492-23.904-27.2-38.025-39.053-58.836
	c-7.82-13.729-9.417-30.274-16.946-44.165c-15.762-29.081-54.709-41.991-65.122-73.387c-4.208-12.689-3.025-26.89-8.548-39.064
	c-3.256-7.177-8.628-13.146-13.917-18.99c-12.524-13.836-25.047-27.672-37.571-41.508c-16.478-18.205-33.898-37.061-56.957-45.501
	c-39.254-14.369-88.121,10.669-99.389,50.922c-1.421,5.078-2.422,10.525-5.804,14.57c-7.155,8.558-20.623,6.654-31.327,3.515
	c-24.071-7.059-47.792-16.704-67.468-32.263c-19.676-15.559-35.071-37.623-38.704-62.443c-1.565-10.689-0.95-21.619-2.683-32.282
	c-6.362-39.151-41.68-65.938-73.923-89.039S53.991,536.019,50,496.556h294.469C347.806,358.34,364.051,214.143,367.388,75.927z"/>
</svg>
